HIERARCHY
ROOT Hips
{
	OFFSET 0.000000 0.000000 0.000000 
	CHANNELS 6 Xposition Yposition Zposition Zrotation Yrotation Xrotation
	JOINT LeftUpLeg
	{
		OFFSET 1.363060 -1.794630 0.839290 
		CHANNELS 3 Zrotation Yrotation Xrotation
		JOINT LeftLeg
		{
			OFFSET 2.448110 -6.726130 0.000000 
			CHANNELS 3 Zrotation Yrotation Xrotation
			JOINT LeftFoot
			{
				OFFSET 2.562200 -7.039590 0.000000 
				CHANNELS 3 Zrotation Yrotation Xrotation
				JOINT LeftToeBase
				{
					OFFSET 0.157640 -0.433110 2.322550 
					CHANNELS 3 Zrotation Yrotation Xrotation
					End Site
					{
						OFFSET 0.000000 0.000000 0.000000 
					}
				}
			}
		}
	}
	JOINT RightUpLeg
	{
		OFFSET -1.305520 -1.794630 0.839290 
		CHANNELS 3 Zrotation Yrotation Xrotation
		JOINT RightLeg
		{
			OFFSET -2.542530 -6.985550 0.000000 
			CHANNELS 3 Zrotation Yrotation Xrotation
			JOINT RightFoot
			{
				OFFSET -2.568260 -7.056230 0.000000 
				CHANNELS 3 Zrotation Yrotation Xrotation
				JOINT RightToeBase
				{
					OFFSET -0.164730 -0.452590 2.363150 
					CHANNELS 3 Zrotation Yrotation Xrotation
					End Site
					{
						OFFSET 0.000000 0.000000 0.000000 
					}
				}
			}
		}
	}
	JOINT Spine
	{
		OFFSET 0.028270 2.035590 -0.193380 
		CHANNELS 3 Zrotation Yrotation Xrotation
		JOINT Spine1
		{
			OFFSET 0.056720 2.048850 -0.042750 
			CHANNELS 3 Zrotation Yrotation Xrotation
			JOINT Neck1
			{
				OFFSET -0.054170 1.746240 0.172020 
				CHANNELS 3 Zrotation Yrotation Xrotation
				JOINT Head
				{
					OFFSET 0.104070 1.761360 -0.123970 
					CHANNELS 3 Zrotation Yrotation Xrotation
					End Site
					{
						OFFSET 0.000000 0.000000 0.000000 
					}
				}
			}
			JOINT LeftArm
			{
				OFFSET 3.362410 1.200890 -0.311210 
				CHANNELS 3 Zrotation Yrotation Xrotation
				JOINT LeftForeArm
				{
					OFFSET 4.983000 -0.000000 -0.000000 
					CHANNELS 3 Zrotation Yrotation Xrotation
					JOINT LeftHand
					{
						OFFSET 3.483560 -0.000000 -0.000000 
						CHANNELS 3 Zrotation Yrotation Xrotation
						JOINT LeftHandIndex1
						{
							OFFSET 0.715260 -0.000000 -0.000000 
							CHANNELS 3 Zrotation Yrotation Xrotation
							End Site
							{
								OFFSET 0.000000 0.000000 0.000000 
							}
						}
					}
				}
			}
			JOINT RightArm
			{
				OFFSET -3.136600 1.374050 -0.404650 
				CHANNELS 3 Zrotation Yrotation Xrotation
				JOINT RightForeArm
				{
					OFFSET -5.241900 -0.000000 -0.000000 
					CHANNELS 3 Zrotation Yrotation Xrotation
					JOINT RightHand
					{
						OFFSET -3.444170 -0.000000 -0.000000 
						CHANNELS 3 Zrotation Yrotation Xrotation
						JOINT RightHandIndex1
						{
							OFFSET -0.622530 -0.000000 -0.000000 
							CHANNELS 3 Zrotation Yrotation Xrotation
							End Site
							{
								OFFSET 0.000000 0.000000 0.000000 
							}
						}
					}
				}
			}
		}
	}
}
MOTION
Frames: 9
Frame Time: 0.041667
34.594694 17.017782 3.727749 -168.140671 56.427118 -165.563304 -37.277057 -14.769410 -7.582238 -11.281295 8.533491 16.658027 2.963563 -6.001435 -29.669263 3.803300 -11.893900 -35.357700 37.800858 -13.877664 -13.819481 -1.586471 -18.506011 55.824813 -0.424589 -0.231507 -11.232759 -7.479200 15.722500 -50.664200 -0.858789 7.757311 -5.093619 -7.010725 2.988416 -16.196944 1.647119 10.908117 20.455981 -1.567600 6.779300 15.358200 -75.213013 20.742918 6.719723 15.381730 -25.710713 -4.475367 0.176311 2.666630 -2.290034 -7.125000 0.000000 0.000000 73.282874 -3.751920 56.646074 -36.945775 47.998652 -12.427648 0.031682 -2.607987 -0.600484 7.125000 0.000000 0.000000 
34.745923 17.042503 3.736347 -168.709419 55.753823 -166.280296 -37.555814 -15.161636 -6.431980 -11.331622 8.235063 16.301304 3.035311 -6.399807 -29.927829 3.756800 -11.829500 -35.131600 36.932587 -11.783814 -14.179038 -0.846235 -18.437910 54.205168 -0.673852 -3.908104 -13.404257 -8.223200 16.281000 -53.362800 -0.774550 7.500475 -5.054474 -6.733395 2.921315 -16.239967 1.716690 10.816531 20.527789 -1.555900 6.768300 15.360400 -74.606133 19.892353 7.145019 16.213458 -26.525762 -4.700794 0.232209 2.581973 -2.871417 -7.125000 0.000000 0.000000 73.427653 -4.937298 55.070274 -36.740519 47.847431 -12.378914 0.027915 -2.617915 -0.768279 7.125000 0.000000 0.000000 
34.896401 17.067547 3.748708 -169.241137 54.976352 -166.964558 -37.812467 -15.562424 -5.266814 -11.406854 7.899414 15.860426 3.090506 -6.387623 -30.142550 3.850200 -11.958400 -35.585000 36.129535 -9.435649 -14.095408 0.215985 -18.137801 51.699563 -0.680208 -7.447206 -14.618466 -8.827400 16.695400 -55.491400 -0.695755 7.248528 -5.019735 -6.464674 2.856717 -16.288424 1.770881 10.691480 20.582225 -1.556600 6.740500 15.358800 -74.025442 19.025337 7.765784 17.116766 -27.451251 -4.998343 0.273280 2.521923 -3.417154 -7.125000 0.000000 0.000000 73.612239 -6.164789 53.597331 -36.530404 47.687661 -12.315675 0.027571 -2.628892 -0.910141 7.125000 0.000000 0.000000 
35.046448 17.093021 3.763326 -169.749893 54.098914 -167.593810 -38.045790 -15.979882 -4.094951 -11.505887 7.527184 15.332953 3.136666 -6.000182 -30.347094 4.070200 -12.253300 -36.633900 35.335491 -6.838184 -13.614468 1.479298 -17.535259 48.369782 -1.013009 -7.330413 -17.841267 -7.417600 15.673700 -50.436700 -0.625195 7.001549 -4.991721 -6.218784 2.789728 -16.339996 1.812839 10.539207 20.624503 -1.567200 6.699200 15.358400 -73.483797 18.159933 8.478372 18.068881 -28.491011 -5.393983 0.256626 2.521138 -3.942411 -7.125000 0.000000 0.000000 73.832509 -7.420775 52.259789 -36.312276 47.517083 -12.234873 0.029991 -2.640396 -1.032607 7.125000 0.000000 0.000000 
35.196065 17.118817 3.778588 -170.241624 53.150861 -168.168863 -38.272768 -16.445182 -2.915060 -11.618954 7.125374 14.732830 3.180737 -5.487613 -30.561771 4.321900 -12.576800 -37.804400 34.544259 -4.129049 -12.925207 2.836434 -16.708098 44.584868 -1.426721 -6.133386 -20.560579 -5.819400 14.251000 -44.252400 -0.565773 6.771586 -4.969889 -5.998111 2.727001 -16.383396 1.846420 10.362289 20.659913 -1.581400 6.643700 15.362600 -73.036276 17.286136 9.109047 19.065892 -29.605848 -5.860341 0.186237 2.554828 -4.403917 -7.125000 0.000000 0.000000 74.075697 -8.702183 51.064704 -36.085259 47.336141 -12.139022 0.032456 -2.651648 -1.129389 7.125000 0.000000 0.000000 
35.345897 17.143860 3.794174 -170.684799 52.142371 -168.659526 -38.458183 -16.968685 -1.753301 -11.728292 6.707207 14.089470 3.226599 -5.102455 -30.775977 4.518000 -12.819600 -38.696800 33.776799 -1.360456 -12.053866 4.248669 -15.660061 40.433485 -1.831142 -4.610310 -22.684946 -4.153200 12.361500 -37.023000 -0.512561 6.565638 -4.953861 -5.797077 2.671299 -16.412093 1.875650 10.169401 20.683771 -1.591500 6.574200 15.364200 -72.688204 16.413822 9.734867 20.086635 -30.742131 -6.361476 0.091360 2.591101 -4.892349 -7.125000 0.000000 0.000000 74.329641 -10.003127 49.994154 -35.846667 47.142955 -12.029225 0.032782 -2.661771 -1.169589 7.125000 0.000000 0.000000 
35.494870 17.167184 3.809544 -171.135206 51.074828 -169.078368 -38.629005 -17.546997 -0.667372 -11.824613 6.297695 13.439559 3.272133 -5.028898 -30.971517 4.603100 -12.922400 -39.078700 32.879127 1.325117 -11.369889 5.532041 -14.535889 36.374511 -2.164274 -2.967045 -24.230654 -2.545700 9.920500 -28.719800 -0.469030 6.379939 -4.946337 -5.616417 2.620744 -16.421011 1.905499 9.962788 20.692193 -1.588700 6.486800 15.356000 -72.480891 15.571999 10.356084 21.152678 -31.896120 -6.885701 0.008176 2.610220 -5.400696 -7.125000 0.000000 0.000000 74.589990 -11.313693 49.016057 -35.602311 46.943050 -11.911182 0.030801 -2.670845 -1.134311 7.125000 0.000000 0.000000 
35.642982 17.186961 3.824161 -171.613216 49.959572 -169.442963 -38.798096 -18.142958 0.309507 -11.903227 5.913540 12.814273 3.308432 -5.295804 -31.108194 4.573500 -12.886800 -38.946200 31.840263 4.012187 -10.708172 6.748881 -13.266034 32.203896 -2.391768 -1.578714 -25.300737 -1.192400 6.929200 -19.505700 -0.436818 6.213881 -4.947630 -5.458237 2.575969 -16.409763 1.925575 9.742831 20.689268 -1.579400 6.382300 15.341000 -72.396394 14.796380 11.067343 22.251412 -33.063629 -7.439422 -0.051494 2.617416 -6.007485 -7.125000 0.000000 0.000000 74.854368 -12.623828 48.120177 -35.366042 46.747432 -11.793903 0.027962 -2.679517 -1.037766 7.125000 0.000000 0.000000 
35.790772 17.201901 3.837489 -172.130030 48.807727 -169.778160 -38.972171 -18.687787 1.168776 -11.965204 5.562145 12.234129 3.320086 -5.793066 -31.128757 4.477000 -12.769400 -38.511300 30.630107 6.773822 -10.022566 7.872775 -11.850381 27.942905 -2.499018 -0.580163 -25.935652 -0.279400 3.399600 -9.393500 -0.414236 6.061826 -4.955602 -5.317592 2.534966 -16.379461 1.912157 9.523225 20.674844 -1.582100 6.269100 15.320600 -72.440576 14.125211 11.912784 23.375309 -34.185381 -7.957542 -0.078311 2.599501 -6.574134 -7.125000 0.000000 0.000000 75.111533 -13.913401 47.324504 -35.145061 46.561548 -11.681755 0.025089 -2.688051 -0.913430 7.125000 0.000000 0.000000 
